<svg id="Layer_1" xmlns="http://www.w3.org/2000/svg" viewBox="0 0 154 211"><style>.st0{fill:#fdcd9b}.st1{fill:#fcbc84}.st2{fill:#231f20}.st3{fill:#fff}.st4{fill:#f7955f}.st5{fill:#234482}.st6{fill:#0e9347}</style><path class="st0" d="M62.9 155.8h29.4v32.9H62.9z"/><path class="st1" d="M62.9 159.6s12.4 7.9 29.4 6.1v-9.9H62.9v3.8z"/><ellipse class="st1" cx="20.5" cy="104.7" rx="14.3" ry="16.4"/><ellipse class="st1" cx="134.7" cy="104.7" rx="14.3" ry="16.4"/><path class="st0" d="M134.7 73.5c0-24.1-17.6-41.7-57-41.7s-57 17.6-57 41.7-4.1 87.6 57 87.6 57-63.5 57-87.6z"/><ellipse class="st2" cx="49.9" cy="100.8" rx="6.2" ry="6.8"/><circle class="st3" cx="47.2" cy="97.8" r="1.8"/><path class="st2" d="M40 84c2.9 1.5 7.6-5 18.3.6 2 1 3.1-8.7-8.4-8.7C40 76 38.2 83.2 40 84z"/><ellipse class="st2" cx="106.2" cy="100.8" rx="6.2" ry="6.8"/><circle class="st3" cx="103.5" cy="97.8" r="1.8"/><path class="st2" d="M115.3 84c-2.9 1.5-7.6-5-18.3.6-2 1-3.1-8.7 8.4-8.7 9.9.1 11.6 7.3 9.9 8.1z"/><path class="st1" d="M77.6 124.6c-6.1 0-9.8-4.6-9.8-2.4 0 2.2 1.8 6.4 9.8 6.4s9.8-4.2 9.8-6.4-3.7 2.4-9.8 2.4zm0 20.2c-2.1 0-3.4-1.6-3.4-.8s.6 2.2 3.4 2.2 3.4-1.4 3.4-2.2c0-.7-1.3.8-3.4.8z"/><path class="st4" d="M77.6 139.2c-9.7 0-15.5-3.9-15.5-2.9s2.8 4.9 15.5 4.9 15.5-3.9 15.5-4.9c0-1-5.8 2.9-15.5 2.9z"/><path class="st5" d="M77.6 169v37H6.2c0-15 37.6-37 71.4-37z"/><path class="st5" d="M77.6 169v37H149c.1-15-37.6-37-71.4-37z"/><path class="st6" d="M77.6 169c-7.2 0-14.6 1-21.7 2.7 0 .1 7.9 10.2 21.7 10.2 12.8 0 21.2-8.7 22.5-10-7.4-1.8-15-2.9-22.5-2.9z"/><path class="st0" d="M62.9 170.3s4.3 5.3 14.7 5.3c10.4 0 14.7-5.3 14.7-5.3s-15.2-5.6-29.4 0z"/><path class="st2" d="M124.5 26.6S103.3-.3 59.3 9.8c-44 10.1-47.3 36.6-46 62.3 1.3 25.7 4.9 40.8 9 39 4.2-1.9 2-18.9 2.4-22.8.4-3.9 4.4-21.7 31.2-19 26.8 2.6 49.3-7.1 49.3-7.1s9.1 11.5 15 13.7c11.9 4.4 8 33.7 12.7 33.7 4.8 0 27.8-67.6-8.4-83z"/></svg>